<?xml version="1.0" encoding="UTF-8"?>
<!DOCTYPE svg PUBLIC "-//W3C//DTD SVG 1.1//EN" "http://www.w3.org/Graphics/SVG/1.1/DTD/svg11.dtd">
<!-- Creator: CorelDRAW 2020 (64-Bit) -->
<svg xmlns="http://www.w3.org/2000/svg" xml:space="preserve" width="211.667mm" height="118.533mm" version="1.1" style="shape-rendering:geometricPrecision; text-rendering:geometricPrecision; image-rendering:optimizeQuality; fill-rule:evenodd; clip-rule:evenodd"
viewBox="0 0 21166.66 11853.32"
 xmlns:xlink="http://www.w3.org/1999/xlink"
 xmlns:xodm="http://www.corel.com/coreldraw/odm/2003">
 <defs>
  <style type="text/css">
   <![CDATA[
    .str0 {stroke:#E1E7FC;stroke-width:20;stroke-miterlimit:22.9256}
    .fil0 {fill:#E1E7FC}
    .fil23 {fill:#163560;fill-rule:nonzero}
    .fil15 {fill:#192E4F;fill-rule:nonzero}
    .fil21 {fill:#1F437C;fill-rule:nonzero}
    .fil4 {fill:#233862;fill-rule:nonzero}
    .fil14 {fill:#2A4E96;fill-rule:nonzero}
    .fil2 {fill:#2B478B;fill-rule:nonzero}
    .fil3 {fill:#2C3A64;fill-rule:nonzero}
    .fil22 {fill:#2E3552;fill-rule:nonzero}
    .fil5 {fill:#699FF0;fill-rule:nonzero}
    .fil9 {fill:#739AF0;fill-rule:nonzero}
    .fil8 {fill:#AFCDFB;fill-rule:nonzero}
    .fil25 {fill:#C0DAFF;fill-rule:nonzero}
    .fil10 {fill:#CAE0FF;fill-rule:nonzero}
    .fil26 {fill:#E27423;fill-rule:nonzero}
    .fil20 {fill:#E27727;fill-rule:nonzero}
    .fil18 {fill:#E27830;fill-rule:nonzero}
    .fil11 {fill:#E58638;fill-rule:nonzero}
    .fil7 {fill:#ED8736;fill-rule:nonzero}
    .fil16 {fill:#ED975D;fill-rule:nonzero}
    .fil6 {fill:#F99746;fill-rule:nonzero}
    .fil24 {fill:#FCA56B;fill-rule:nonzero}
    .fil12 {fill:#FF9843;fill-rule:nonzero}
    .fil17 {fill:#FF9E55;fill-rule:nonzero}
    .fil13 {fill:#FFB27D;fill-rule:nonzero}
    .fil19 {fill:white;fill-rule:nonzero}
    .fil1 {fill:white;fill-rule:nonzero}
   ]]>
  </style>
 </defs>
 <g id="Layer_x0020_1">
  <metadata id="CorelCorpID_0Corel-Layer"/>
  <g id="_1197995664">
   <path class="fil0 str0" d="M20242.84 11800.77c-12809.86,12.46 -19214.78,18.69 -19214.78,18.69 -1225.48,-4031.88 -884.46,-6949.14 1023.05,-8751.81 282.19,-256.23 723.99,-420.4 1325.38,-492.52 371.47,-139.81 756.37,-465.15 1154.69,-976.02 834.65,-1323.31 1617.13,-1772.83 2347.46,-1348.58 544.08,277.7 951.61,625.22 1222.6,1042.57 490.5,689.36 1206.97,798.85 2149.42,328.49 1347.81,-886.74 2358.33,-1384.22 3031.56,-1492.46 1392.49,-244.11 2294.17,31.9 2705.06,828.04 237.74,435.95 418.42,866.3 542.05,1291.04 177.09,649.65 444.35,2008.74 670.71,2299.84 223.34,227.38 359.83,495.55 905.93,649.42 925.72,815.81 1320.8,-106.87 1845.73,789.17 417.93,901.3 798.35,1204.65 873.67,2353.12 77.33,1341.45 -116.85,2495.12 -582.53,3461.01z"/>
   <g>
    <path class="fil1" d="M17924.34 4945.46l-3918.84 -28.82c0,0 174.53,-636.14 595.2,-636.14 21.53,0 43.69,1.68 66.49,5.19 0,0 331.87,-578.05 781.7,-578.05 191.83,0 405.01,105.01 623.25,404.79 0,0 216.7,-73.31 505.84,-73.31 255.77,0 568.07,57.37 837.13,273.59 382.12,307.13 509.23,632.75 509.23,632.75z"/>
    <path class="fil1" d="M5425.84 4253.5l-2650.77 -19.5c0,0 118.01,-430.28 402.55,-430.28 14.58,0 29.56,1.14 45,3.5 0,0 224.47,-391 528.73,-391 129.75,0 273.97,71.05 421.55,273.82 0,0 146.66,-49.58 342.2,-49.58 173.01,0 384.27,38.78 566.23,185.04 258.46,207.76 344.51,428 344.51,428z"/>
    <path class="fil1" d="M7536.76 3090.4c-89.15,0 -161.45,-121.5 -161.45,-271.42 0,-149.86 72.3,-271.38 161.45,-271.38 89.22,0 161.52,121.52 161.52,271.38 0,149.92 -72.3,271.42 -161.52,271.42z"/>
    <path class="fil1" d="M12074.86 4066.46l-3657.11 -72.64c0,0 164.12,-586.74 553.14,-586.74 21.67,0 43.9,1.79 66.99,5.63 0,0 309,-530.36 725.7,-530.36 180.63,0 381.37,99.53 586.07,385.09 0,0 192.59,-62.61 452.32,-62.61 242.3,0 542.95,54.48 800.19,265.2 355.32,291.09 472.7,596.43 472.7,596.43z"/>
    <path class="fil1" d="M8044.31 5468.6l-3220.04 -63.97c0,0 144.52,-516.6 487.06,-516.6 19.04,0 38.65,1.59 58.93,4.96 0,0 272.1,-466.99 638.99,-466.99 159.03,0 335.8,87.67 516.03,339.09 0,0 169.59,-55.14 398.24,-55.14 213.33,0 478.1,47.97 704.59,233.51 312.83,256.27 416.2,525.14 416.2,525.14z"/>
   </g>
   <path class="fil2" d="M12879.51 10474.5l843.38 0 -399.28 -998.23 -440.84 0 -3.26 998.23zm862.86 13.18l-876.09 0 3.32 -1024.59 462.94 0 1.62 4.11 408.21 1020.48z"/>
   <polygon class="fil2" points="14204.24,10487.68 13103.9,10487.68 13103.9,10474.5 14184.77,10474.5 13785.49,9476.27 13103.9,9476.27 13103.9,9463.09 13794.42,9463.09 13796.04,9467.2 "/>
   <polygon class="fil2" points="13328.08,9518.11 13809.36,9518.11 13809.36,9469.68 13328.08,9469.68 "/>
   <polygon class="fil2" points="13413.83,9734.14 13895.1,9734.14 13895.1,9685.71 13413.83,9685.71 "/>
   <polygon class="fil2" points="13499.57,9950.18 13980.85,9950.18 13980.85,9901.75 13499.57,9901.75 "/>
   <polygon class="fil2" points="13594.94,10166.21 14075.51,10166.21 14075.51,10117.78 13594.94,10117.78 "/>
   <polygon class="fil2" points="13686.72,10382.25 14160.84,10382.25 14160.84,10333.82 13686.72,10333.82 "/>
   <path class="fil2" d="M13686.72 10573.41c0,-23.92 19.47,-43.4 43.48,-43.4 23.92,0 43.4,19.48 43.4,43.4 0,24.02 -19.48,43.48 -43.4,43.48 -24.01,0 -43.48,-19.46 -43.48,-43.48z"/>
   <polygon class="fil2" points="12878.94,10483.78 12866.91,10478.39 13322.07,9466.99 13334.1,9472.36 "/>
   <polygon class="fil2" points="13721.13,10536.1 13739.25,10536.1 13739.25,10475.48 13721.13,10475.48 "/>
   <path class="fil2" d="M12831.73 10575.68c0,-24 19.46,-43.4 43.4,-43.4 24,0 43.48,19.4 43.48,43.4 0,24 -19.48,43.4 -43.48,43.4 -23.94,0 -43.4,-19.4 -43.4,-43.4z"/>
   <polygon class="fil2" points="12866.06,10538.3 12884.19,10538.3 12884.19,10477.69 12866.06,10477.69 "/>
   <path class="fil2" d="M14151.64 10573.41c0,-23.92 19.47,-43.4 43.4,-43.4 24,0 43.48,19.48 43.48,43.4 0,24.02 -19.48,43.48 -43.48,43.48 -23.93,0 -43.4,-19.46 -43.4,-43.48z"/>
   <polygon class="fil2" points="14186.05,10536.1 14204.11,10536.1 14204.11,10487.31 14186.05,10487.31 "/>
   <polygon class="fil3" points="10485.52,10310.3 10550.95,10310.3 10550.95,9950.6 10485.52,9950.6 "/>
   <polygon class="fil3" points="10632.67,10310.3 10698.02,10310.3 10698.02,9950.6 10632.67,9950.6 "/>
   <path class="fil3" d="M10706.51 10321.56l-16.99 -22.52c1.42,-1.06 140.83,-107.9 108.41,-199.6 -36.12,-101.97 -65.42,-212.08 -65.72,-213.13l27.26 -7.3c0.3,1.14 29.32,110.18 65.07,211.07 39.31,111.1 -111.59,226.58 -118.03,231.48z"/>
   <path class="fil4" d="M4292.23 10358.03l-16.79 -20.19c1.26,-1.05 125.41,-105.78 96.3,-196.34 -31.99,-99.56 -58,-207.05 -58.25,-208.11l25.52 -6.16c0.25,1.06 26.04,107.63 57.72,206.19 34.53,107.49 -98.82,219.87 -104.5,224.61z"/>
   <polygon class="fil5" points="10895.58,9972.9 10332.58,9972.9 10330.11,9630.83 10894.65,9618.94 "/>
   <path class="fil6" d="M19307.24 4307.85l-551.09 2935.15 -26.26 -0.71 -2849.5 -72.42c0,0 1278.71,-396.28 1399.19,-565.83 113.68,-159.76 1300.65,-2039.72 1679.06,-2264.73 23.17,-13.81 43.4,-21.34 59.93,-21.92 288.67,-9.54 288.67,-9.54 288.67,-9.54z"/>
   <path class="fil7" d="M18958.58 4339.42l0 -0.07c-378.48,225.16 -1565.33,2104.93 -1679,2264.69 -120.48,169.55 -1399.19,565.83 -1399.19,565.83l2849.5 72.42c-210.21,-109.57 -635.42,-369.24 -700.6,-705.13 -68.72,-352.64 627.14,-1654.65 929.29,-2197.74z"/>
   <path class="fil8" d="M19217.81 7999.79c-3.4,3.75 -6.95,7.37 -10.5,10.98 -7.26,7.08 -14.83,13.95 -22.71,20.47l0 0 0 0.06c-4.01,3.2 -8.18,6.3 -12.35,9.42 -4.17,2.97 -8.5,6.02 -12.82,8.93l-0.16 0 0 0.06c-4.32,2.9 -8.8,5.59 -13.59,8.35 -4.48,2.63 -9.27,5.32 -14.21,7.87l0 0 0 0.07c-4.79,2.47 -9.88,4.88 -14.83,7.14l-0.15 0 0 0.08c-1.39,0.65 -2.94,1.28 -4.33,1.91l-0.15 0 0 0.08c-1.39,0.69 -3.09,1.4 -4.63,2.12l-0.16 0 0 0.13c-1.54,0.58 -3.24,1.35 -4.79,2.06l-0.15 0 0 0.08c-1.7,0.77 -3.55,1.55 -5.25,2.33l0 0 0 0.06c-1.86,0.72 -3.71,1.56 -5.56,2.41l0 0 0 0.08c-2.01,0.77 -3.86,1.63 -5.72,2.48l-0.15 0 0 0.06c-2.01,0.85 -4.02,1.7 -6.03,2.63 -2.16,0.91 -4.17,1.84 -6.33,2.75l-0.15 0 0 0.08c-2.16,0.92 -4.33,1.84 -6.49,2.84 -2.32,1.05 -4.63,1.9 -6.95,3.03 -4.63,1.99 -9.42,4.04 -14.36,6.24l-0.16 0 0 0.07c-2.47,0.99 -4.94,2.12 -7.41,3.19l-0.16 0 0 0.07c-2.47,1.13 -5.25,2.18 -7.87,3.32 -1.7,0.77 -3.71,1.63 -5.56,2.47 -20.7,8.85 -43.56,18.71 -68.89,29.4 -4.79,1.91 -9.42,3.97 -14.21,6.02 -66.11,27.97 -146.42,61.38 -238.78,99.19 -9.58,3.91 -19.16,7.86 -29.04,11.91 -16.06,6.58 -32.59,13.37 -49.43,20.17 -3.7,1.48 -7.25,2.98 -10.96,4.39 -5.1,2.13 -10.35,4.24 -15.6,6.44 -5.25,2.07 -10.35,4.18 -15.6,6.31 -5.41,2.2 -10.66,4.25 -15.91,6.44 -5.41,2.12 -10.66,4.31 -16.22,6.51 -5.4,2.19 -10.66,4.4 -16.22,6.59 -5.4,2.2 -10.96,4.39 -16.37,6.58 -5.56,2.2 -11.12,4.47 -16.52,6.66l-0.16 0.08c-5.56,2.19 -11.12,4.38 -16.68,6.64 -4.02,1.71 -8.03,3.2 -12.05,4.96 -1.7,0.57 -3.24,1.2 -4.94,1.91l0 0c-5.71,2.27 -11.28,4.46 -16.99,6.81 -28.73,11.46 -57.92,23.14 -87.88,35.05 -17.3,6.86 -34.76,13.79 -52.36,20.8 -15.14,5.95 -30.43,11.97 -45.88,18.14 -11.58,4.54 -23.16,9.14 -34.9,13.73 -45.57,17.85 -92.37,36.19 -140.09,54.74 -9.58,3.75 -19.31,7.5 -28.88,11.33 -16.69,6.44 -33.37,12.88 -50.36,19.4 -15.13,5.95 -30.58,11.89 -46.02,17.76 -16.99,6.6 -34.14,13.18 -51.59,19.83 -573.48,220.01 -1270.22,471.8 -1919.7,668.42 -22.7,6.87 -45.41,13.67 -68.11,20.46 -11.28,3.34 -22.71,6.74 -33.98,10.07 -22.55,6.72 -45.1,13.3 -67.5,19.82 -67.34,19.61 -134.06,38.52 -199.86,56.64 -21.93,6.02 -43.56,11.97 -65.33,17.77 -10.97,2.91 -21.78,5.89 -32.59,8.78 -21.47,5.74 -43.1,11.41 -64.57,17 -21.31,5.59 -42.47,11.05 -63.63,16.36 -21.16,5.37 -42.17,10.62 -63.02,15.78 -21,5.26 -41.7,10.28 -62.24,15.16 -20.7,4.95 -41.24,9.77 -61.47,14.58 -20.39,4.61 -40.47,9.28 -60.55,13.74 -9.89,2.33 -19.92,4.53 -29.81,6.72 -39.85,8.73 -78.93,16.93 -117.38,24.71 -9.58,2.06 -19.16,3.97 -28.58,5.81 -19.15,3.69 -37.84,7.37 -56.68,10.84 -37.23,7.02 -73.83,13.52 -109.67,19.4 -26.87,4.47 -53.28,8.58 -79.23,12.33 -17.3,2.55 -34.44,4.88 -51.28,7.07 -25.17,3.4 -50.04,6.44 -74.44,9.07 -32.44,3.54 -63.81,6.52 -94.33,8.77 -15.29,1.21 -30.38,2.13 -45.04,2.91 -7.43,0.49 -14.72,0.85 -22.01,1.14 -14.51,0.63 -28.82,1.19 -42.77,1.4 -5.01,0.16 -10.27,0.22 -15.64,0.44 -1.28,0 -2.55,0 -3.83,0.07 -3.4,0 -6.73,0.07 -10.19,0.14 -13.18,0.28 -27.19,0.64 -41.86,0.91 -3.96,0.14 -8,0.22 -11.96,0.3 -4.95,0.14 -9.99,0.2 -15.09,0.27 -7.7,0.22 -15.64,0.36 -23.78,0.56 -4.25,0.08 -8.57,0.16 -12.96,0.29 -4.33,0.07 -8.77,0.14 -13.24,0.28 -8.99,0.14 -17.99,0.36 -27.34,0.5 -9.26,0.21 -18.82,0.35 -28.46,0.65 -4.88,0.14 -9.76,0.2 -14.72,0.27 -12.19,0.28 -24.64,0.5 -37.45,0.71 -5.89,0.22 -11.84,0.28 -17.86,0.42 -12.6,0.3 -25.56,0.5 -38.72,0.79 -5.53,0.14 -11.2,0.28 -16.85,0.34 -16.3,0.29 -32.93,0.65 -49.92,1.08 -47.31,0.91 -97.59,1.9 -150.69,2.97 -6.51,0.13 -13.09,0.27 -19.75,0.35 -13.31,0.28 -26.69,0.56 -40.44,0.85 -20.31,0.36 -41.21,0.85 -62.36,1.27 -8.58,0.07 -17.21,0.29 -25.78,0.43 -19.98,0.42 -40.3,0.77 -60.83,1.2 -7.44,0.21 -14.87,0.28 -22.3,0.5 -14.16,0.28 -28.39,0.49 -42.85,0.77 -15.5,0.28 -31.15,0.57 -46.93,0.93 -8.36,0.21 -16.64,0.28 -25.07,0.49 -7.86,0.14 -15.73,0.28 -23.65,0.43 -12.54,0.28 -25.14,0.5 -37.81,0.7 -73.22,1.42 -149.4,2.84 -228.5,4.4 -11.39,0.2 -22.93,0.42 -34.55,0.63 -17.5,0.28 -35.27,0.64 -53.18,1.07 -41.36,0.71 -83.48,1.54 -126.25,2.33 -3.25,0 -6.65,0.06 -9.91,0.22 -37.04,0.63 -74.49,1.34 -112.58,2.05 -1.7,0 -3.54,0 -5.38,0.14 -226.52,4.11 -470.59,8.57 -728.4,13.24 -13.1,0.08 -26.13,0.35 -39.29,0.63 -52.27,0.93 -104.94,1.85 -158.19,2.84 -33.35,0.56 -66.91,1.05 -100.61,1.7 -1.84,0 -3.76,0 -5.6,0.14 -38.38,0.64 -76.96,1.28 -115.91,1.98 -4.74,0.08 -9.62,0.08 -14.44,0.29 -68.41,1.05 -137.65,2.26 -207.54,3.54 -17.92,0.28 -35.84,0.57 -53.81,0.91 -5.53,0.08 -10.98,0.22 -16.36,0.29 -61.24,0.99 -122.99,1.98 -185.1,3.12 -27.12,0.42 -54.3,0.91 -81.49,1.35 -17.99,0.27 -36.11,0.55 -54.16,0.91 -36.69,0.57 -73.51,1.2 -110.39,1.84 -55.09,0.92 -110.54,1.85 -166.26,2.76 -5.03,0.08 -10.05,0.08 -15.01,0.22 -22.95,0.28 -45.82,0.77 -68.9,1.12 -1.48,0 -3.18,0 -4.82,0.08 -68.39,1.13 -137.21,2.2 -206.32,3.32 -1.99,0 -3.9,0.08 -5.82,0.08 -47.79,0.85 -95.65,1.56 -143.66,2.41 -30.79,0.42 -61.67,0.99 -92.68,1.41 -19.2,0.35 -38.39,0.63 -57.65,1 -80.08,1.27 -160.58,2.47 -241.38,3.75l-2.05 0c-133.82,2.04 -268.64,4.11 -403.8,6.15 -18.49,0.29 -37.04,0.49 -55.59,0.79l-3.91 0c-59.26,0.91 -118.59,1.77 -178.07,2.69 -18.33,0.27 -36.6,0.49 -54.95,0.71 -51.13,0.84 -102.25,1.56 -153.43,2.27 -103.95,1.4 -208.11,2.82 -312.05,4.31 -65.78,0.92 -131.5,1.83 -197.06,2.76 -41.27,0.42 -82.48,0.99 -123.69,1.64 -98.29,1.26 -196.36,2.53 -294.06,3.81 -4.68,0 -9.36,0.08 -14.03,0.22 -61.39,0.71 -122.71,1.56 -183.81,2.25 -87.16,1.07 -174.04,2.13 -260.43,3.12 -34.7,0.44 -69.39,0.79 -103.88,1.28 -10.63,0.07 -21.04,0.14 -31.51,0.34 -69.89,0.87 -139.35,1.58 -208.53,2.41 -10.11,0.08 -20.31,0.16 -30.52,0.36 -47.37,0.43 -94.6,1 -141.68,1.42 -199.53,2.13 -395.52,4.11 -586.92,5.89 -23.15,0.2 -46.16,0.35 -69.1,0.63 -14.1,0.06 -28.05,0.21 -42,0.35 -18.76,0.07 -37.37,0.28 -56,0.5 -37.32,0.21 -74.28,0.63 -111.1,0.85 -713.88,5.87 -1350.92,8.06 -1843.24,5.23 -50.17,-0.27 -98.85,-0.63 -145.9,-0.98 -116.86,-0.99 -224.1,-2.42 -320.49,-4.11 -273.06,-4.74 -459.53,-12.75 -534.35,-24.07 -403.89,-61.75 -1086.7,-260.22 -1515.89,-493.4 -258.82,-140.69 -425.37,-293.98 -382.8,-437.44 54.26,-182.61 198.43,-303.49 349.36,-396.73 130.82,-81.07 266.75,-141.26 353.46,-203.07 5.02,-3.7 9.95,-7.15 14.61,-10.83 16.08,-12.33 29.97,-24.71 41.48,-37.47 1.93,-2.19 3.84,-4.1 6.04,-6.72 32.62,-35.97 86.41,-96.09 165.35,-168.03 52.61,-48.08 116.38,-101.18 192.67,-156.48l1.19 -0.85c332.91,-240.25 902.06,-515.33 1807.14,-536.58 0,0 1772.36,-29.53 3984.37,-59.79l0.22 0c220.42,-3 445.16,-6.01 673.01,-9.13l0.08 0c75.9,-1 152.23,-2.01 228.78,-3.01l0.06 0c114.85,-1.45 230.34,-2.92 346.25,-4.48l0.22 0c193.3,-2.47 387.88,-4.93 583.09,-7.31 39.15,-0.46 78.31,-0.91 117.54,-1.46 78.11,-0.91 156.27,-1.83 234.52,-2.83 156.62,-1.84 313.31,-3.66 469.8,-5.48 78.03,-0.91 156.06,-1.73 234.01,-2.64 1083.51,-12.07 2142.78,-21.84 3046.7,-26.51l0.06 0c35.51,-0.18 70.88,-0.35 105.79,-0.54 394.16,-1.84 756.82,-2.66 1076.85,-2.28 153.06,0.27 296.39,0.81 428.76,1.56 478.96,2.99 813.66,10.13 945.1,22.75 341.65,32.69 722.22,57.36 1069.43,75.35 28.57,1.56 56.99,3.03 84.95,4.39 1.54,0.09 2.93,0.09 4.32,0.19 43.1,2.19 85.42,4.2 126.96,6.11 1.39,0.1 2.63,0.1 3.87,0.19 48.18,2.27 95.29,4.38 141.01,6.39 67.03,2.83 131.29,5.48 191.99,7.82 26.41,1.06 51.89,2.05 76.91,2.98 299.33,11.12 498.27,15.58 498.27,15.58 0,0 1.55,5.16 4.48,14.72 0.15,0.85 0.46,1.64 0.77,2.55 0.78,2.55 1.55,5.38 2.47,8.5 1.7,6.23 3.71,13.53 5.87,21.73 2.94,10.92 6.03,23.52 9.42,37.61l0.16 0.14c0.77,3.47 1.54,7.07 2.47,10.68l0 0.08c2.78,11.75 5.56,24.36 8.49,37.73 1.86,9.43 3.87,19.2 5.72,29.26 1.08,5.59 2.16,11.18 3.09,16.91 1.23,6.24 2.31,12.54 3.24,18.91 1.55,9.14 3.09,18.48 4.64,27.97 0.46,3.83 1.08,7.64 1.54,11.61 0.93,6.74 1.85,13.59 2.78,20.47 0.46,3.53 0.93,7.07 1.24,10.69 0.77,6.95 1.69,13.88 2.47,20.89 0.31,3.54 0.61,7.15 1.08,10.77 0.62,7.15 1.23,14.36 1.7,21.59 12.35,155.13 -2.63,330.87 -102.56,440.98z"/>
   <path class="fil9" d="M19116.49 8073.14c-92.83,42.29 -371.61,160.24 -754.81,312.63 -184.42,-538.43 -630.64,-727.91 -630.64,-727.91l1553.34 -325.85c44.95,192.1 107.81,615.95 -167.89,741.13z"/>
   <path class="fil5" d="M10650.65 8149.98l0 0c-51.7,0.42 -94.25,-46.6 -94.53,-104.58l-0.57 -111.59c-0.36,-57.92 41.7,-105.8 93.47,-106.22 51.68,-0.49 94.24,46.52 94.53,104.5l0.56 111.6c0.29,57.92 -41.77,105.8 -93.46,106.29z"/>
   <path class="fil5" d="M10165.69 8154.43l0 0c-51.69,0.49 -94.24,-46.51 -94.54,-104.5l-0.55 -111.6c-0.36,-57.92 41.7,-105.78 93.46,-106.28 51.69,-0.43 94.24,46.59 94.54,104.58l0.55 111.6c0.28,57.92 -41.78,105.78 -93.46,106.2z"/>
   <path class="fil5" d="M9680.73 8158.97l0 0c-51.68,0.49 -94.25,-46.52 -94.53,-104.52l-0.55 -111.59c-0.36,-57.98 41.7,-105.79 93.46,-106.28 51.68,-0.42 94.24,46.6 94.52,104.52l0.57 111.59c0.28,57.98 -41.78,105.78 -93.47,106.28z"/>
   <path class="fil5" d="M9195.77 8163.49l0 0c-51.69,0.5 -94.24,-46.52 -94.52,-104.5l-0.65 -111.59c-0.28,-58 41.78,-105.79 93.54,-106.3 51.69,-0.49 94.24,46.6 94.54,104.52l0.55 111.6c0.3,57.99 -41.77,105.78 -93.46,106.27z"/>
   <path class="fil5" d="M8710.81 8168.04l0 0c-51.68,0.49 -94.23,-46.53 -94.53,-104.52l-0.63 -111.6c-0.28,-57.98 41.78,-105.78 93.53,-106.27 51.7,-0.5 94.25,46.52 94.53,104.51l0.57 111.6c0.28,57.98 -41.78,105.78 -93.47,106.28z"/>
   <path class="fil5" d="M8225.85 8172.56l0 0c-51.69,0.5 -94.24,-46.6 -94.52,-104.52l-0.63 -111.59c-0.3,-57.98 41.77,-105.77 93.46,-106.26 51.75,-0.51 94.31,46.5 94.6,104.5l0.57 111.59c0.28,58 -41.78,105.79 -93.48,106.28z"/>
   <path class="fil5" d="M7740.9 8177.1l0 0c-51.69,0.5 -94.24,-46.6 -94.6,-104.52l-0.57 -111.59c-0.28,-58 41.78,-105.78 93.47,-106.28 51.76,-0.49 94.31,46.52 94.59,104.51l0.57 111.59c0.28,57.99 -41.78,105.78 -93.46,106.29z"/>
   <path class="fil5" d="M7255.93 8181.63l0 0c-51.67,0.41 -94.23,-46.6 -94.6,-104.52l-0.55 -111.66c-0.28,-57.92 41.78,-105.78 93.45,-106.21 51.76,-0.5 94.33,46.52 94.61,104.52l0.57 111.59c0.28,57.92 -41.78,105.78 -93.48,106.28z"/>
   <path class="fil5" d="M6770.98 8186.09l0 0c-51.69,0.5 -94.25,-46.52 -94.6,-104.52l-0.56 -111.59c-0.29,-57.92 41.77,-105.78 93.46,-106.28 51.76,-0.42 94.31,46.6 94.59,104.58l0.57 111.59c0.3,57.92 -41.76,105.79 -93.46,106.22z"/>
   <path class="fil5" d="M6295.65 8190.55l0 0c-51.68,0.5 -94.25,-46.52 -94.52,-104.51l-0.57 -111.6c-0.28,-57.98 41.78,-105.78 93.47,-106.28 51.68,-0.49 94.25,46.53 94.53,104.51l0.55 111.59c0.36,58 -41.7,105.79 -93.46,106.29z"/>
   <path class="fil5" d="M5810.73 8195.08l0 0c-51.73,0.49 -94.26,-46.52 -94.56,-104.52l-0.58 -111.58c-0.29,-57.99 41.76,-105.8 93.47,-106.29 51.71,-0.49 94.25,46.52 94.56,104.52l0.57 111.59c0.31,57.98 -41.76,105.79 -93.46,106.28z"/>
   <path class="fil5" d="M5325.76 8199.61l0 0c-51.71,0.49 -94.26,-46.59 -94.55,-104.51l-0.57 -111.59c-0.3,-58 41.76,-105.78 93.46,-106.28 51.71,-0.49 94.26,46.51 94.55,104.5l0.57 111.6c0.31,57.99 -41.75,105.78 -93.46,106.28z"/>
   <path class="fil5" d="M4724.45 8199.61l0 0c-51.71,0.49 -94.27,-46.59 -94.56,-104.51l-0.57 -111.59c-0.31,-58 41.76,-105.78 93.47,-106.28 51.7,-0.49 94.25,46.51 94.55,104.5l0.58 111.6c0.29,57.99 -41.76,105.78 -93.47,106.28z"/>
   <path class="fil5" d="M15947.42 8156.7l0 0c-51.74,0.43 -94.37,-46.6 -94.68,-104.5l-0.47 -111.6c-0.3,-57.99 41.71,-105.78 93.45,-106.28 51.59,-0.49 94.22,46.51 94.52,104.51l0.62 111.59c0.31,58 -41.85,105.78 -93.44,106.28z"/>
   <path class="fil5" d="M15462.43 8161.24l0 0c-51.74,0.42 -94.37,-46.6 -94.67,-104.6l-0.47 -111.59c-0.31,-57.92 41.7,-105.78 93.45,-106.2 51.74,-0.49 94.21,46.52 94.52,104.5l0.62 111.59c0.31,57.93 -41.7,105.81 -93.45,106.3z"/>
   <path class="fil5" d="M14977.45 8165.69l0 0c-51.74,0.49 -94.37,-46.51 -94.52,-104.51l-0.62 -111.59c-0.31,-57.92 41.7,-105.78 93.44,-106.28 51.74,-0.43 94.22,46.59 94.53,104.58l0.62 111.6c0.3,57.92 -41.71,105.78 -93.45,106.2z"/>
   <path class="fil5" d="M4784.07 7748.08l-1.67 0 -149.93 1.34c-95.17,0.85 -172.25,75.76 -171.81,166.97l2.87 599.8c0.2,42.63 17.47,83.06 48.64,113.78 33.11,32.66 77.55,50.42 124.69,50l149.94 -1.34c95.17,-0.85 172.25,-75.78 171.8,-166.98l-2.86 -599.81c-0.22,-42.61 -17.48,-83.05 -48.64,-113.78 -32.73,-32.28 -76.37,-49.98 -123.03,-49.98zm-148.87 946.55c-50.55,0 -97.84,-19.2 -133.35,-54.25 -33.97,-33.5 -52.78,-77.59 -53.01,-124.19l-2.87 -599.73c-0.47,-99.28 83.13,-180.77 186.38,-181.7l149.92 -1.34c51.56,-0.57 99.23,18.77 135.15,54.23 33.96,33.5 52.78,77.61 53.01,124.13l2.86 599.8c0.48,99.29 -83.13,180.78 -186.37,181.69l-149.93 1.36 -1.79 0z"/>
   <path class="fil2" d="M2864.72 7752.11l-298.28 340.72 -194.5 31.45c16.08,-12.33 29.96,-24.79 41.47,-37.39 1.96,-2.2 3.85,-4.18 6.01,-6.8 32.67,-36.05 86.48,-96.09 165.35,-168.03 52.69,-48 116.45,-101.18 192.75,-156.48l1.14 -0.78 86.06 -2.69z"/>
   <polygon class="fil2" points="2937.28,7756.5 2647,8099.49 3017.92,8141.82 3098.55,7774.33 "/>
   <polygon class="fil2" points="3133.83,7782.13 3081.42,8125.13 3343.48,8022.66 3338.45,7787.73 "/>
   <polygon class="fil5" points="3892.42,10028.35 4553.9,10028.35 4553.9,9689.82 3892.42,9689.82 "/>
   <polygon class="fil4" points="4095.37,10347.97 4153.36,10347.97 4153.36,10027.22 4095.37,10027.22 "/>
   <polygon class="fil4" points="4225.84,10347.97 4283.82,10347.97 4283.82,10027.22 4225.84,10027.22 "/>
   <path class="fil4" d="M3987.38 10436.27c0,-103.59 88.26,-187.57 197.11,-187.57 108.88,0 197.13,83.98 197.13,187.57 0,103.66 -88.25,187.63 -197.13,187.63 -108.85,0 -197.11,-83.97 -197.11,-187.63z"/>
   <path class="fil10" d="M4065.37 10439.59c0,-62.58 53.34,-113.36 119.12,-113.36 65.8,0 119.15,50.78 119.15,113.36 0,62.67 -53.35,113.43 -119.15,113.43 -65.78,0 -119.12,-50.76 -119.12,-113.43z"/>
   <path class="fil2" d="M10311.34 10382.17c0,-142.89 122.99,-258.73 274.73,-258.73 151.67,0 274.66,115.84 274.66,258.73 0,142.88 -122.99,258.72 -274.66,258.72 -151.74,0 -274.73,-115.84 -274.73,-258.72z"/>
   <path class="fil10" d="M10420.03 10386.77c0,-86.39 74.34,-156.41 166.04,-156.41 91.62,0 165.97,70.02 165.97,156.41 0,86.31 -74.35,156.34 -165.97,156.34 -91.7,0 -166.04,-70.03 -166.04,-156.34z"/>
   <path class="fil9" d="M9939.17 9720.83c135.95,-68.82 149.48,-318.2 22.46,-412.53 -126.96,-94.23 -297.04,-184.86 -478.17,-180.69 -372.45,8.65 -150.18,747.3 -25.98,751.06 73.07,2.25 300.7,-66.28 481.69,-157.84z"/>
   <path class="fil2" d="M17685.02 7511.44c12.97,-21.53 1346.06,-607.05 2264.74,-495.83l-814.27 628.6 -1404.45 13.59c0,0 -110.59,-38.95 -46.02,-146.36z"/>
   <path class="fil9" d="M16716.13 4398.44c0,0 -726.39,2124.56 -872.2,2450.44 -145.8,325.87 -510.31,559.96 -510.31,559.96l-2.16 1.06 -2346.52 1225.67c0,0 -3068.21,51.26 -3737.9,41.71l-0.14 0c-60.69,-0.92 -101.83,-2.41 -118.89,-4.32 -205.48,-23.65 -308.64,-107.98 -276.99,-185.16 31.71,-77.18 4659.88,-1086.89 5172.73,-1194.31 4.82,-1.14 9.7,-2.19 14.6,-3.04 498.83,-107.84 529.34,-284.03 529.34,-284.03l1719.68 -2398.9c20.7,-43.25 58.38,-77.92 102.87,-105.68 132.21,-82.4 325.89,-103.4 325.89,-103.4z"/>
   <path class="fil11" d="M16390.24 4501.84c-459.5,680.69 -1730.65,2558.33 -1855.82,2689.84 -134.67,141.54 -4271.23,1219.08 -5287.38,1485.6l-0.14 0c-60.69,-0.92 -101.83,-2.41 -118.89,-4.32 -205.48,-23.65 -308.64,-107.98 -276.99,-185.16 31.71,-77.18 4659.88,-1086.89 5172.73,-1194.31 512.8,-107.45 543.94,-287.07 543.94,-287.07l1719.68 -2398.9c20.7,-43.25 58.38,-77.92 102.87,-105.68z"/>
   <path class="fil2" d="M16716.13 4398.44c0,0 -726.39,2124.56 -872.2,2450.44 -145.8,325.87 -510.31,559.96 -510.31,559.96l-2.16 1.06c-531.63,37.95 -990.28,-41.5 -1293.11,-119.45 498.83,-107.84 529.34,-284.03 529.34,-284.03l1719.68 -2398.9c20.7,-43.25 58.38,-77.92 102.87,-105.68 132.21,-82.4 325.89,-103.4 325.89,-103.4z"/>
   <path class="fil12" d="M2139.53 8793.48c-16.35,185.71 -65.39,309.41 -102.21,378.87 -258.82,-140.69 -425.37,-293.98 -382.8,-437.44 54.26,-182.61 198.43,-303.49 349.36,-396.73l3.19 7.65c0,0 159.88,137.01 132.46,447.65z"/>
   <path class="fil13" d="M5179.22 9391.43c0,0 20.79,118.25 43.52,241.81 24.72,134.33 51.73,274.88 56.83,276.64 9.79,3.41 24.46,-16.06 31.18,-32.36 5.41,-13.16 16.09,-114.55 10.69,-184.58 -1.31,-17.07 -2.9,-31.16 -4.74,-39.81 -9.36,-44.31 -10.68,-200.8 -39.9,-225.73 -29.22,-24.85 -97.58,-35.97 -97.58,-35.97z"/>
   <path class="fil13" d="M5314.74 9857.63c0,0 -5.05,19.4 2.28,38.31 7.35,18.98 8.91,24.43 -4.68,35.06 -13.61,10.61 -28.31,25.54 -38.5,21.15 -10.21,-4.46 -3.9,-91.18 -3.9,-91.18l44.8 -3.34z"/>
   <path class="fil4" d="M5273.42 10619.73c-12.62,-7.72 -5.44,-65.15 -5.44,-65.15 0,0 58.8,-47.09 66.9,-11.04 8.07,36.03 55.85,52.18 83.05,56.58 18.78,3.04 24.59,13.45 26.38,19.61l-170.89 0z"/>
   <path class="fil4" d="M5012.32 10619.73c-12.61,-7.72 -5.44,-65.15 -5.44,-65.15 0,0 58.82,-47.09 66.89,-11.04 8.08,36.03 55.85,52.18 83.05,56.58 18.79,3.04 24.59,13.45 26.4,19.61l-170.9 0z"/>
   <path class="fil14" d="M5094.04 9952.79c20.93,88.44 47.28,189.42 57.58,246.35 1.2,6.58 2.18,12.61 2.92,17.9 0.71,5.32 1.19,10 1.4,13.89 5.47,106.63 89.76,350.42 104.83,356.09 23.32,8.77 60.05,-9.92 79.28,-16.02 7.96,-2.61 13.34,-10.61 11.57,-18.75 -41.75,-191.89 -67.47,-466.48 -73.06,-630.11 -2.81,-82.35 -6.56,-140.98 -6.56,-140.98 0,0 -205.58,-54.88 -206.81,14.52 -0.47,26.9 12.54,88.22 28.85,157.11z"/>
   <path class="fil15" d="M5094.04 9952.79c20.93,88.44 47.28,189.42 57.58,246.35 1.2,6.58 7.5,62.53 8.23,67.82l36 -408.84 -51.04 4.68 -50.77 89.99z"/>
   <path class="fil13" d="M5156.65 9292.8l-0.06 10.07c0,0 2.75,31.49 -35.99,36.11 -38.75,4.6 -68.09,-12.33 -67.06,-36.55 3.49,-18.84 7.32,-31.72 7.6,-47.31 0.08,-5.79 -0.31,-11.89 -1.39,-18.83l75.08 -1.48 22.12 3.62 -0.3 54.37z"/>
   <path class="fil16" d="M5156.92 9234.95l-0.3 54.46c-7.97,3.68 -16.97,5.93 -27.06,5.93 -34.5,0 -56.81,-25.27 -68.45,-43.68 0.08,-5.73 -0.31,-11.89 -1.39,-18.82l75.08 -1.5 22.12 3.61z"/>
   <path class="fil14" d="M5174.96 9819.47l-72.54 757.77c0,0 -53.67,17.42 -102.18,4.03 0,0 -28.19,-414.29 -25.55,-515.61 2.64,-101.26 -22.83,-270.97 5.81,-289.67 28.67,-18.69 194.46,43.48 194.46,43.48z"/>
   <path class="fil13" d="M5161.3 9261.36c0,0 -96.16,19.48 -107.34,-40.63 -11.17,-60.05 -31.11,-98 29.82,-112.94 60.9,-14.95 77.14,5.79 85.74,24.91 8.62,19.12 16.49,122.08 -8.22,128.66z"/>
   <path class="fil4" d="M5058.39 9234.1c0,0 -33.42,7.51 -36.61,-53.31 -1.22,-23.44 -7.04,-105.71 59.92,-102.89 66.94,2.83 97.44,41.92 103.53,48.78 45.68,51.63 -65.49,13.25 -80.29,25.21 -14.79,11.97 -0.69,31.72 -17.6,38.73 -16.93,7.09 -30.31,7.09 -27.5,22.6 2.81,15.51 -1.45,20.88 -1.45,20.88z"/>
   <path class="fil17" d="M5194.19 9127.9c0,0 -35.82,12.45 -48.38,13.38 -3.74,0.27 -59.31,4.1 -59.31,4.1l-81.16 14.31c0,0 -15.87,-60.26 23.84,-98.14l0.02 0c0.99,-0.93 2.04,-1.92 3.09,-2.77 10.73,-9.27 25.1,-16.99 44.26,-21.81 97.06,-24.35 117.23,87.45 117.64,90.93z"/>
   <path class="fil18" d="M5146.88 9139.58l-15.34 2.05c-11.99,-15.86 -56.36,-70.88 -103.14,-79.02l0.78 -1.06 0.02 0c0.8,-0.99 1.45,-1.49 2.61,-2.91l0.48 0.14c59.85,14.3 104.47,66.71 114.59,80.8z"/>
   <path class="fil17" d="M5086.5 9145.38c0,0 -10.44,11.82 -13.17,23.16 -2.74,11.4 -55.45,18.19 -59.08,12.31 -3.65,-5.95 -8.91,-21.16 -8.91,-21.16l81.16 -14.31z"/>
   <path class="fil18" d="M5086.5 9145.38c0,0 97.12,1.84 141.5,-21.6 3.39,-1.76 2.81,-6.78 -0.9,-7.63 -6.66,-1.64 -18.03,-3.48 -36.76,-4.19 0,0 -34.77,28.9 -103.84,33.42z"/>
   <path class="fil14" d="M4880.85 9454.74c0,0 36.97,-97.71 65.3,-118.47 16.36,-12.03 49.64,-21.65 74.88,-27.67 8,-1.84 15.18,-3.4 20.76,-4.55 7.24,-1.48 11.77,-2.27 11.89,-2.27l0.01 0 0 0c2.46,7.17 7.08,13.53 13.58,17.37 12.79,7.64 32.47,12.46 49.78,11.33 23.96,-1.57 39.53,-19.83 39.53,-29.68l0.01 -0.07 0 0c0,0 1.95,0.56 5.36,1.63 5.02,1.63 13.25,4.32 23.26,8.07 29.86,11.19 58.74,17.35 78.28,48.93 28.96,46.74 40.93,107.56 40.93,107.56 0,0 -26.57,23.14 -55.05,34.2 -1.34,0.5 -2.84,0.28 -4.23,0.28 1.87,255.33 13.5,294.63 7.98,294.56 0,0 -30.75,33.78 -111.17,32.85 -31.37,-0.36 -58.65,-2.69 -81.78,-6.09 -64.52,-9.64 -82.81,-22.87 -82.54,-29.59 0.21,-6.1 3.52,-167.61 4.29,-176.25 3.57,-40 4.82,-48.28 1.67,-109.12 -60.22,-14.78 -102.74,-53.02 -102.74,-53.02z"/>
   <path class="fil12" d="M5286.39 9896.57c0,0 -37.68,6.66 -95.79,8.57 -10.16,0.43 -20.96,0.65 -32.39,0.65 -25.73,0 -54.09,-0.93 -84.16,-3.83 -10.58,-0.93 -21.39,-2.13 -32.39,-3.62 -27.3,-3.61 -55.66,-8.77 -84.25,-15.86l4.34 -65.49 1.37 -21.74 1.49 -21.67 1.48 -21.74 17.79 -269.92 9.84 -167.52 36.82 -9 2.53 3.69 15.79 24.08c5.08,7.35 11.12,13.3 17.9,17.98 25.7,17.64 60.75,15.43 84.04,-4.68 7.72,-6.65 14.18,-15.22 18.63,-25.84l5.82 -14.17 6.35 2.34 36.94 13.53 26.57 179.01 26.35 251.93 2.22 21.45 2.23 21.1 2.22 21.59 8.26 79.16z"/>
   <path class="fil13" d="M5088.99 9673.46c0,0 13.47,-10.33 23.81,-11.82 10.35,-1.56 27.77,-8.15 24.95,-2.06 -2.83,6.17 -21.9,15.8 -21.9,15.8l-26.86 -1.92z"/>
   <path class="fil19" d="M5273.68 9774.72c-48.05,15.57 -97.6,20.67 -141.72,20.67 -20.44,0 -39.7,-1.05 -57.17,-2.77 -46.46,-4.31 -85.52,-12.67 -110.18,-19.04l1.48 -21.74c52.71,13.89 187.24,41.29 305.37,1.43l2.22 21.45z"/>
   <path class="fil19" d="M5278.13 9817.41c-49.42,16.71 -100.66,22.03 -146.17,22.03 -20.44,0 -39.7,-1.07 -57.17,-2.69 -48.26,-4.47 -88.7,-13.46 -113.04,-19.76l1.37 -21.74c51.13,13.67 191.37,43.54 312.79,0.57l2.22 21.59z"/>
   <path class="fil13" d="M4868.8 9641.95c0,0 112.33,64.08 201.81,78.31 0,0 17.78,-23.08 12.32,-33.13 -4.09,-7.45 -130.53,-88.8 -131.2,-91.34 -1.69,-6.23 19.67,-44.47 31.86,-88.03 -36.21,-9.19 -83.39,-36.96 -97.34,-48.42 -15.68,54.59 -37.61,139.13 -17.45,182.61z"/>
   <path class="fil4" d="M5114.83 9741.43l52.6 6.44c5.83,0.72 11.31,-2.82 12.99,-8.49l35.99 -119.3c2.16,-7.15 -2.64,-14.6 -10.07,-15.44l-52.61 -6.45c-5.8,-0.71 -11.29,2.83 -12.98,8.5l-35.99 119.38c-2.17,7.15 2.64,14.51 10.07,15.36z"/>
   <path class="fil15" d="M5133.46 9743.78l52.62 6.37c5.8,0.71 11.29,-2.85 12.97,-8.44l36 -119.37c2.17,-7.15 -2.65,-14.52 -10.07,-15.43l-52.62 -6.45c-5.81,-0.71 -11.29,2.89 -12.97,8.5l-36.01 119.38c-2.16,7.15 2.66,14.52 10.08,15.44z"/>
   <path class="fil15" d="M5170.65 9623.46l0 0c1.54,0.16 3.19,-0.91 3.7,-2.39l35.25 -104.72c0.49,-1.5 -0.34,-2.92 -1.87,-3.06 -1.54,-0.2 -3.2,0.85 -3.71,2.33l-35.24 104.74c-0.5,1.56 0.34,2.9 1.87,3.1z"/>
   <path class="fil13" d="M5062.64 9671.34c0,0 9.36,5.8 16.01,4.04 5.52,-1.43 10.34,-1.92 16.7,-6.24 6.7,-4.61 21.55,1.42 25.92,4.38 12.26,8.16 53.69,7.8 53.69,16.02 0,8.14 -18.01,31.15 -39.84,37.95 -21.81,6.87 -64.53,-7.23 -64.53,-7.23l-7.95 -48.92z"/>
   <path class="fil13" d="M11090 10144.05c0,0 -32.71,4.74 -40.36,13.3 -7.58,8.51 -12.32,15.16 -7.58,18.98 4.76,3.75 76.84,-14.72 76.84,-14.72l-28.9 -17.56z"/>
   <path class="fil3" d="M11168.74 10028.35l-88.22 112.87c0,0 7.57,15.14 32.22,18.04 24.71,2.84 76.89,-13.3 76.89,-18.04 0,-4.76 -20.89,-112.87 -20.89,-112.87z"/>
   <path class="fil2" d="M10889.48 10272.85c25.64,29.59 79.8,48.71 184.17,53.51 8.35,0.44 16.85,0.79 25.28,1.01 8.71,0.28 17.49,0.49 26.2,0.57 28.39,0.42 56.65,0.06 83.54,-0.85 26.07,-0.86 50.92,-2.27 73.43,-4.19 44.05,-3.61 79.17,-8.99 97.36,-15.08 5.38,-1.84 9.35,-3.74 11.48,-5.66 1.92,-1.7 3.4,-3.61 4.53,-5.81 6.58,-12.24 3.12,-32.29 -4.82,-54.3 -11.6,-32.16 -32.86,-68.55 -47.22,-91.35 -2.84,-4.54 -5.39,-8.49 -7.58,-11.83 -4.39,-6.72 -7.08,-10.62 -7.08,-10.62 0,0 -48.79,4.54 -115.56,13.17 -13.59,1.78 -27.97,3.75 -42.84,5.81 -143.6,20.33 -286.62,56.79 -286.48,105.21 0,7.37 -0.42,13.47 5.59,20.41z"/>
   <path class="fil3" d="M11067.21 10325.81c8.77,0.28 49.21,2.05 57.92,2.13 28.39,0.42 56.65,0.06 83.54,-0.85l25.28 -101.89c-39.15,54.58 -154.14,97.07 -166.74,100.61z"/>
   <path class="fil3" d="M11151.82 10621.93l-139.21 0c2.19,-5.32 7.5,-12.25 20.4,-14.46 21.95,-3.89 59.97,-15.71 55.16,-47.36 -4.96,-32.08 48.43,-36.18 48.43,-36.18 0,0 22.15,85.75 15.22,98z"/>
   <path class="fil2" d="M10887.22 10267.61c0,0 172.62,271.61 187,303.9 0,0 58.77,5.46 72.85,-36.46 0,0 -102.6,-286.64 -147.7,-310.28 -45.1,-23.65 -112.15,42.84 -112.15,42.84z"/>
   <path class="fil13" d="M11235.37 9695.84c0,0 -59.47,81.35 -112.44,85.67 0,0 4.47,-20.18 14.52,-38.1 4.39,-7.92 4.25,-17.62 -0.35,-25.48 -0.93,-1.63 -1.84,-3.26 -2.77,-4.82 -10.41,-18.47 -15.01,-29.52 -15.01,-29.52l24.36 -44.05 5.03 -23.71c4.1,11.11 8.99,21.38 14.37,29.87 27.75,43.54 72.29,50.14 72.29,50.14z"/>
   <path class="fil16" d="M11165.35 9645.29c0,0 8.63,40.7 -31.02,67.82 -10.41,-18.47 -15.01,-29.52 -15.01,-29.52l24.36 -44.05c19.47,-2.9 21.67,5.75 21.67,5.75z"/>
   <path class="fil13" d="M11111.89 9708.23c0,0 74.55,-40.64 48.57,-86.67 -25.99,-46.1 -33.93,-82.35 -82.63,-58.35 -48.71,24 -47.94,46.74 -42.98,64.22 4.96,17.5 56.99,90.14 77.04,80.8z"/>
   <path class="fil2" d="M11160.17 9529.86c0.44,-1.2 1.92,-2.54 5.59,-4.24 0,0 -3.75,-0.71 -7.92,0.71 -2.84,-5.1 -9.42,-13.53 -19.48,-12.33 0,0 5.95,0.77 8.85,6.23 -14.86,-6.94 -40.71,-6.23 -101.73,23.16 -80.38,38.65 -32.22,82.07 -18.99,84.32 13.24,2.27 33.49,-25.76 54.09,-31.92 20.61,-6.09 35.77,21.8 44.11,23.22 8.36,1.41 2.91,-4.67 10.49,-12.46 7.57,-7.8 14.38,7.37 15.65,18.41 1.2,11.11 18.98,19.46 18.98,19.46 0,0 0,0 7.37,-18.9 7.35,-18.83 -3.48,-82.56 -14.18,-92.89 -0.91,-0.93 -1.84,-1.84 -2.83,-2.77z"/>
   <path class="fil4" d="M11603.99 10534.55c0,0 17.35,26.34 21.38,34.83 4.05,8.57 -3.89,26.71 -15.79,29.46 -10.47,2.4 -12.03,20.95 -12.03,20.95l50.85 0c5.37,0 10.26,-2.9 12.31,-7.5 7.23,-15.79 8.85,-36.31 10.27,-43.19 3.04,-14.44 9.07,-26.55 6.38,-41.2 -2.63,-14.66 -27.69,-23.17 -73.37,-23.02 -50.13,0.14 0,29.67 0,29.67z"/>
   <path class="fil6" d="M11455.93 10215.7c-38.38,40.65 -319.98,-43.4 -296.33,-64.86 6.02,-5.45 3.97,-11.97 6.38,-20.74 11.69,-41.56 -11.54,-112.66 -21.52,-140.27 -2.34,-6.38 -3.96,-10.41 -4.24,-11.26 -9.58,-25.7 -16.93,-52.53 -21.75,-78.39 -9.28,-49.7 -9.07,-95.94 3.61,-124.19l0.2 -0.42c52.77,-15.45 81.79,-93.04 81.79,-93.04 0,0 167.12,47.51 227.79,285.92 0,0 3.11,15.21 6.95,38.01l0.06 0c1.14,7.01 2.41,14.74 3.69,22.95 6.44,42.48 10.19,96.86 14.01,137.36 0.21,1.42 0.29,2.84 0.43,4.32 1.98,17.49 5.31,37.81 -1.07,44.61z"/>
   <path class="fil2" d="M11234.17 10175.34c0,0 28.11,3.75 84.69,7.94 58.69,4.31 120.86,13.59 130.99,33.27 3.33,6.52 0.99,23.01 -5.53,45.89 -14.44,50.41 -49.56,131.62 -89.57,203.64 102.81,6.01 242.8,28.67 242.8,28.67 22.88,25.92 13.24,56.22 13.24,56.22 -7.29,0 -29.39,3.12 -59.48,8 -109.18,17.56 -242.09,53.67 -324.43,53.67 -18.06,0 -31.59,-12.8 -37.04,-29.53l0 0c-33.84,-103.08 44.33,-407.77 44.33,-407.77z"/>
   <path class="fil6" d="M11455.87 10215.7c-38.32,40.71 -343.62,-41.56 -320.06,-63.02 2.41,-2.27 6.09,-7.07 9.7,-12.68 5.18,-8 10.21,-17.34 11.62,-22.5l0.08 -0.5c1.7,-5.96 2.68,-12.18 3.32,-18.7 0.92,-7.79 1.06,-15.72 0.79,-23.79 -1.15,-32.49 -10.08,-65.78 -16.86,-84.68 -2.34,-6.44 -3.96,-10.41 -4.24,-11.19l14.58 -14.59 53.18 -53.1c0,0 15.7,17.84 45.45,38.09 39.09,26.62 102.11,57.36 185.44,57.42 1.2,7.09 2.34,14.81 3.69,23.01 2.33,15.94 4.38,33.5 6.15,51.48 0.86,7.94 1.63,15.94 2.34,23.87 1.07,11.97 2.13,23.8 3.05,35.18 0.85,8.79 1.56,17.21 2.33,25.21l0.14 1.64c0.14,1.42 0.35,2.84 0.49,4.18 1.86,17.49 5.25,37.87 -1.19,44.67z"/>
   <path class="fil13" d="M10818.68 10118.9c17.34,0 49.78,-15.86 52.68,-16.14 24.78,-2.33 0.85,-26.76 0.85,-26.76 0,0 -38.88,-8.5 -45.47,-8.01 -2.12,0.15 -5.65,0.86 -9.49,1.78l4.19 10.06c0,0 -27.12,4.11 -27.48,11.6 -0.35,7.58 16.14,27.47 24.72,27.47z"/>
   <path class="fil2" d="M10864.63 10088.1c-6.03,-17.26 2.33,-22.65 2.33,-22.65 0,0 170.01,-80.64 183.89,-89.49 13.95,-8.87 107.41,-179.15 107.41,-179.15 0,0 34.63,-69.62 78.74,-68.2 38.38,1.21 59.69,25.15 71.51,50.22 14.1,29.87 8.15,65.35 -14.5,89.35 -50.91,53.89 -153.16,160.52 -179.65,176.74 -58.98,36.03 -235.65,65.21 -235.65,65.21 0,0 -9.4,-8.5 -14.08,-22.03z"/>
   <path class="fil19" d="M11451.05 10104.82c-34.19,10.13 -73.56,13.73 -112.16,13.73 -78.88,0 -154.58,-15.15 -178.36,-20.25 0.92,-7.79 1.06,-15.72 0.79,-23.79 23.07,5.04 185.08,39.02 287.39,6.44 0.86,7.94 1.63,15.94 2.34,23.87z"/>
   <path class="fil19" d="M11456.43 10165.21c-26.47,5.17 -54.8,7.23 -83.27,7.23 -100.11,0 -201.51,-25.43 -227.65,-32.44 5.18,-8 10.21,-17.34 11.62,-22.5l0.08 -0.5c41.27,10.55 189.19,44.83 296.89,23 0.85,8.79 1.56,17.21 2.33,25.21z"/>
   <polygon class="fil20" points="17424.15,8645.34 17771.24,8645.34 17771.24,8589.34 17424.15,8589.34 "/>
   <path class="fil2" d="M17430.17 8950.94l335.01 0 0 -506.76c0,-47.23 -48.19,-85.69 -107.35,-85.69l-120.32 0c-59.15,0 -107.34,38.46 -107.34,85.69l0 506.76zm347.21 9.84l-359.41 0 0 -516.6c0,-52.68 53.75,-95.45 119.54,-95.45l120.32 0c65.95,0 119.55,42.77 119.55,95.45l0 516.6z"/>
   <path class="fil16" d="M17894.61 7804c-14.67,11.7 -31.97,-0.35 -54.52,-7.78 -22.4,-7.51 5.56,-32.71 5.56,-32.71 0.15,0.07 0.77,-0.14 2.16,-0.64 6.64,-2.47 27.34,-11.32 44.17,-13.17 4.33,-0.42 8.35,-0.42 11.74,0.28 26.72,5.09 5.56,42.35 -9.11,54.02z"/>
   <path class="fil13" d="M17894.61 7769.1l-8.34 9.7 -31.35 1.99c0,0 -4.17,-10.35 -7.11,-17.92 6.64,-2.47 27.96,-15.15 54.83,-14.16l-8.03 20.39z"/>
   <polygon class="fil3" points="17712.66,8136.53 17699.38,8129.51 18038.41,7493.03 18051.69,7500.04 "/>
   <polygon class="fil6" points="18176.49,7534.59 17920.71,7484.32 17954.85,7388.45 18210.47,7438.65 "/>
   <path class="fil16" d="M17915 7757.14c0,0 -19.46,8.78 -21.63,18.48 -2.16,9.7 -1.23,26.19 5.87,24.63 7.26,-1.62 20.39,-18.41 20.24,-27.82 -0.31,-9.36 -4.48,-15.29 -4.48,-15.29z"/>
   <path class="fil14" d="M17299.66 7430.86c0,0 -77.69,36.82 -91.44,54.94 -13.59,18.13 51.74,34.06 51.74,34.06l52.67 -41.41 -12.97 -47.59z"/>
   <path class="fil13" d="M17844.88 7780.93c0,0 7.72,10.27 17.29,10.27 9.73,0 40.32,1.35 42.79,-4.32 2.47,-5.59 -16.84,-20.25 -25.33,-19.9 -8.34,0.28 -27.8,1.49 -34.75,13.95z"/>
   <path class="fil21" d="M17856.15 7782.2c2.32,-19.13 -7.41,-22.88 -7.41,-22.88 0,0 -193.22,-46.66 -209.6,-52.81 -16.37,-6.16 -149.82,-162.08 -149.82,-162.08 0,0 -50.96,-64.5 -96.22,-53.53 -39.54,9.56 -56.38,38.95 -63.17,67.42 -8.19,33.91 5.71,69.38 34.44,89.27 64.25,44.76 193.07,132.98 223.96,143.95 68.89,24.57 257.94,16.51 257.94,16.51 0,0 7.87,-10.76 9.88,-25.85z"/>
   <path class="fil3" d="M17582.46 8952.5l-162.02 0.92c-1.55,-0.28 -2.78,-0.64 -3.55,-0.99 -10.82,-5.38 -7.57,-46.8 -6.49,-59.62 0.31,-2.41 0.46,-3.76 0.46,-3.76 0,0 56.84,-45.95 64.87,-11.04 0.16,1.07 0.47,2.12 0.78,3.2l0 0c10.03,32.63 54.52,47.21 80,51.24 19.62,3.06 24.71,14.39 25.95,20.05z"/>
   <path class="fil13" d="M17285.6 7461.74c0,0 56.22,47.78 111.98,14.44 0,0 7.72,-33.21 4.01,-56.16 -0.46,-2.83 -0.77,-5.59 -1.23,-8.14 -4.02,-25.92 -5.56,-40.5 -5.56,-40.5l-0.16 0c-2.93,-0.71 -97.61,-22.16 -96.99,-19.12 13.28,69.46 -12.05,109.48 -12.05,109.48z"/>
   <path class="fil16" d="M17309.39 7367.35c11.12,14.44 45.72,40.5 90.97,44.53 -4.02,-25.92 -5.56,-40.5 -5.56,-40.5l-0.16 0c-2.47,-0.21 -88.65,-8.21 -85.25,-4.03z"/>
   <path class="fil13" d="M17412.87 7365.57c0,0 -95.76,40.22 -119.86,-19.75 -24.09,-60.05 -52.66,-95.24 7.42,-123.43 60.08,-28.17 81.24,-10.08 94.21,8.01 12.82,18.05 42.48,123.2 18.23,135.17z"/>
   <path class="fil14" d="M17299.35 7362.18c-1.24,1.12 -21.63,11.32 -75.69,-62.74 -8.49,-11.62 -17.6,-38.38 -6.79,-65.14 10.81,-26.78 39.85,-46.46 82.32,-62.12 42.32,-15.66 77.38,-1.06 91.75,21.95 2.62,4.02 5.71,7.83 9.11,11.37 15.91,16.76 1.85,44.23 -21.16,42.26 -16.53,-1.5 -30.74,-4.25 -37.53,-0.79 -14.83,7.57 -16.22,33.35 -16.22,41.5 0.31,8.14 -0.46,15.08 -21.47,11.32 -21,-3.83 -4.17,29.53 0.16,35.76 0,0 5.71,17.42 -4.48,26.63z"/>
   <path class="fil3" d="M17156.63 8954.84l-61.16 0.35c-12.82,0.08 -27.19,-12.66 -30.89,-36.17 -3.55,-23.52 -29.97,-36.19 -35.83,-55.37 -5.87,-19.26 23.16,-46.53 23.16,-46.53l4.95 -6.3 5.09 -6.51 48.5 11.12c0,0 1.24,11.53 2.01,26.19 0.62,10.63 0.92,22.88 0.46,33.63 -1.39,25.71 7.42,53.25 30.27,58.13 22.86,4.9 13.44,21.46 13.44,21.46z"/>
   <path class="fil14" d="M17535.04 8016.79c0,0 1.55,108.9 -7.87,238.84 -12.82,176.5 -28.27,393.33 -29.66,434.32 -2.47,71.31 -13.28,185.43 -13.28,185.43 0,0 -27.03,27.2 -81.24,16.08 0,0 -49.12,-162.5 -63.79,-334.63 -0.31,-2.83 -0.47,-5.66 -0.78,-8.5 -13.74,-175.24 -35.67,-544.36 -35.67,-544.36l232.29 12.82z"/>
   <path class="fil21" d="M17501.22 8039.16c0,0 17.14,38.8 -13.29,165.48 -22.39,92.9 -148.73,352.19 -148.73,352.19 -0.31,-2.83 -0.47,-5.66 -0.78,-8.5 -13.74,-175.24 -35.67,-544.36 -35.67,-544.36l198.47 35.19z"/>
   <path class="fil14" d="M17512.49 8010.55c0,0 -161.09,412.24 -262.88,596.7 -101.63,184.45 -133.29,235.93 -133.29,235.93 0,0 -59,-23.23 -64.41,-39.23 0,0 37.23,-355.16 105.49,-442.12 38.62,-49.07 69.35,-199.05 71.21,-250.31 1.85,-51.32 9.57,-93.32 9.57,-93.32l274.31 -7.65z"/>
   <path class="fil6" d="M17542.46 8058.85c-157.7,17.41 -332.23,-1.42 -332.08,-14.81 0.31,-11.89 -0.31,-40.42 -1.08,-76.75 -0.31,-6.79 -0.46,-13.74 -0.77,-20.96 -0.16,-8.77 -0.31,-17.76 -0.62,-26.98 -0.15,-6.93 -0.31,-14.01 -0.62,-21.24 -2.93,-99.97 -6.64,-214.41 -7.26,-224.39 -2.62,-43.97 23.02,-50.84 27.03,-88.93 7.42,-70.8 -100.86,-94.09 69.82,-153.37 4.94,-1.7 18.84,8.21 43.55,18.92 22.86,9.68 41.09,3.32 61.94,-1.99l25.95 23.72c21.77,20.96 52.67,70.09 60.08,99.7 16.52,66.69 32.12,211.85 42.16,326.42 0.78,7.15 1.39,14.16 2.01,20.96 0.62,9.05 1.55,17.98 2.16,26.55 0.62,7.21 1.09,14.23 1.7,20.88 4.33,54.8 6.64,92.12 6.03,92.27z"/>
   <path class="fil13" d="M17114.62 7997.02c0,0 -2.93,16.08 -0.15,26.99 2.78,10.9 17.14,41.34 21.93,39.65 17.3,-5.95 4.94,-40.36 10.81,-44.04 3.71,-2.33 0.31,13.87 3.71,17.28 3.86,4.04 8.03,-11.41 8.65,-19.61 0.61,-8.3 -10.66,-23.09 -10.66,-23.09l-34.29 2.82z"/>
   <path class="fil14" d="M17132.85 8004.25c16.52,-1.2 18.69,-8.99 18.69,-8.99 0,0 22.24,-196.85 25.79,-213.91 3.55,-17.06 136.23,-173.61 136.23,-173.61 0,0 55.75,-60.48 37.68,-103.53 -15.75,-37.38 -47.41,-49.42 -76.61,-51.62 -34.75,-2.61 -68.88,15.37 -84.02,46.88 -34.13,70.6 -99.31,212.99 -105.34,245.27 -13.28,71.81 27.96,254.69 27.96,254.69 0,0 4.48,5.89 19.62,4.82z"/>
   <path class="fil19" d="M17532.57 7919.15c-55.76,7.07 -110.12,9.48 -158.62,9.48 -75.22,0 -136.08,-5.88 -166.04,-9.28 -0.15,-6.93 -0.31,-14.01 -0.62,-21.24 45.41,5.52 180.1,18.41 323.27,0.08 0.78,7.15 1.39,14.16 2.01,20.96z"/>
   <path class="fil19" d="M17536.43 7966.58c-57.14,7.43 -112.9,9.92 -162.48,9.92 -74.14,0 -134.38,-5.59 -164.65,-9.21 -0.31,-6.79 -0.46,-13.74 -0.77,-20.96 47.11,5.53 182.56,18.27 326.2,-0.63 0.62,7.21 1.09,14.23 1.7,20.88z"/>
   <polygon class="fil6" points="16895.76,10564.28 17873.32,10564.28 17873.32,10398.46 16895.76,10398.46 "/>
   <path class="fil2" d="M16822.24 10549.21c0,-37.75 30.89,-68.33 69.04,-68.33 38.15,0 69.2,30.58 69.2,68.33 0,37.65 -31.05,68.25 -69.2,68.25 -38.15,0 -69.04,-30.6 -69.04,-68.25z"/>
   <path class="fil6" d="M16856.07 10549.21c0,-19.26 15.75,-34.77 35.21,-34.77 19.46,0 35.22,15.51 35.22,34.77 0,19.18 -15.76,34.77 -35.22,34.77 -19.46,0 -35.21,-15.59 -35.21,-34.77z"/>
   <path class="fil2" d="M17801.63 10549.21c0,-37.75 31.04,-68.33 69.19,-68.33 38.15,0 69.04,30.58 69.04,68.33 0,37.65 -30.89,68.25 -69.04,68.25 -38.15,0 -69.19,-30.6 -69.19,-68.25z"/>
   <path class="fil6" d="M17835.61 10549.21c0,-19.26 15.75,-34.77 35.21,-34.77 19.31,0 35.07,15.51 35.07,34.77 0,19.18 -15.76,34.77 -35.07,34.77 -19.46,0 -35.21,-15.59 -35.21,-34.77z"/>
   <polygon class="fil2" points="16797.07,10412.55 17971.97,10412.55 17971.97,10285.38 16797.07,10285.38 "/>
   <path class="fil2" d="M17036 9857.21l382.74 -203.29 381.65 209.38 -375.63 194.56 -388.76 -200.65zm-1.39 -444.82l384.13 -203.99 384.28 210.86 -384.13 204 -384.28 -210.87zm835.29 875.18l-415.64 -214.54 403.13 -208.39 -28.11 -16.28 -381.97 -209.59 404.82 -215.05 -20.54 -19.61 -384.28 -210.86 404.82 -215.05 -12.82 -23.72 -420.42 223.26 -406.67 -223.18 -13.13 23.5 391.39 214.83 -391.24 207.82 -17.76 10.63 17.61 12.31 391.39 214.76 -418.73 216.81 423.82 217.87 -414.09 214.48 12.67 23.86 430.77 -223.19 432.47 223.19 12.51 -23.86z"/>
   <polygon class="fil6" points="16974.07,8652.14 17386.03,8652.14 17386.03,8592.87 16974.07,8592.87 "/>
   <path class="fil3" d="M16980.87 8953.99l398.48 0 0 -498.27c0,-51.4 -52.51,-93.26 -116.92,-93.26l-164.64 0c-64.57,0 -116.92,41.86 -116.92,93.26l0 498.27zm411.77 10.68l-425.21 0 0 -508.95c0,-57.35 58.38,-103.95 130.36,-103.95l164.64 0c71.82,0 130.21,46.6 130.21,103.95l0 508.95z"/>
   <polygon class="fil2" points="16845.1,9007.24 17873.64,9007.24 17873.64,8944.01 16845.1,8944.01 "/>
   <path class="fil22" d="M19981.38 10675.6l-18643.31 0c-11.65,0 -21.17,-10.91 -21.17,-24.16l0 -8.28c0,-13.23 9.52,-24.14 21.17,-24.14l18643.31 0c11.64,0 21.12,10.91 21.12,24.14l0 8.28c0,13.25 -9.48,24.16 -21.12,24.16z"/>
   <path class="fil14" d="M2036.68 8527.8c0,-4.68 3.77,-8.43 8.42,-8.43 4.67,0 8.45,3.75 8.45,8.43 0,4.61 -3.78,8.42 -8.45,8.42 -4.65,0 -8.42,-3.81 -8.42,-8.42z"/>
   <path class="fil14" d="M2063.67 8751.98c0,-4.61 3.76,-8.42 8.41,-8.42 4.65,0 8.44,3.81 8.44,8.42 0,4.68 -3.79,8.43 -8.44,8.43 -4.65,0 -8.41,-3.75 -8.41,-8.43z"/>
   <path class="fil14" d="M2063.67 9010.78c0,-4.68 3.76,-8.43 8.41,-8.43 4.65,0 8.44,3.75 8.44,8.43 0,4.66 -3.79,8.42 -8.44,8.42 -4.65,0 -8.41,-3.76 -8.41,-8.42z"/>
   <path class="fil14" d="M1777.06 8751.98c0,-4.61 3.79,-8.42 8.44,-8.42 4.64,0 8.43,3.81 8.43,8.42 0,4.68 -3.79,8.43 -8.43,8.43 -4.65,0 -8.44,-3.75 -8.44,-8.43z"/>
   <path class="fil14" d="M2598.92 9638.77l312.8 0 0 -467.11c0,-49.51 -40.25,-89.72 -89.73,-89.72l-133.33 0c-49.49,0 -89.74,40.21 -89.74,89.72l0 467.11zm323.09 10.27l-333.37 0 0 -477.38c0,-55.17 44.87,-100 100.02,-100l133.33 0c55.15,0 100.02,44.83 100.02,100l0 477.38z"/>
   <polygon class="fil12" points="2593.78,9311.85 2916.87,9311.85 2916.87,9298.76 2593.78,9298.76 "/>
   <path class="fil14" d="M2140.48 10498.5l715.53 0 -338.78 -846.93 -373.99 0 -2.76 846.93zm732.07 11.2l-743.3 0 2.84 -869.31 392.73 0 1.4 3.48 346.33 865.83z"/>
   <polygon class="fil14" points="3264.43,10509.7 2330.87,10509.7 2330.87,10498.5 3247.89,10498.5 2909.11,9651.57 2330.87,9651.57 2330.87,9640.39 2916.7,9640.39 2918.1,9643.87 "/>
   <polygon class="fil12" points="2521.03,9687.05 2929.37,9687.05 2929.37,9645.98 2521.03,9645.98 "/>
   <polygon class="fil12" points="2593.78,9870.37 3002.11,9870.37 3002.11,9829.23 2593.78,9829.23 "/>
   <polygon class="fil12" points="2666.54,10053.62 3074.87,10053.62 3074.87,10012.55 2666.54,10012.55 "/>
   <polygon class="fil12" points="2747.44,10236.95 3155.21,10236.95 3155.21,10195.81 2747.44,10195.81 "/>
   <polygon class="fil12" points="2825.34,10420.19 3227.56,10420.19 3227.56,10379.13 2825.34,10379.13 "/>
   <path class="fil14" d="M2825.34 10582.42c0,-20.33 16.51,-36.82 36.85,-36.82 20.36,0 36.85,16.49 36.85,36.82 0,20.39 -16.49,36.88 -36.85,36.88 -20.34,0 -36.85,-16.49 -36.85,-36.88z"/>
   <polygon class="fil14" points="2139.98,10506.36 2129.77,10501.76 2515.92,9643.65 2526.13,9648.25 "/>
   <polygon class="fil14" points="2854.51,10550.69 2869.87,10550.69 2869.87,10499.29 2854.51,10499.29 "/>
   <path class="fil14" d="M2099.93 10584.33c0,-20.32 16.5,-36.82 36.84,-36.82 20.34,0 36.85,16.5 36.85,36.82 0,20.39 -16.51,36.88 -36.85,36.88 -20.34,0 -36.84,-16.49 -36.84,-36.88z"/>
   <polygon class="fil14" points="2129.09,10552.61 2144.45,10552.61 2144.45,10501.2 2129.09,10501.2 "/>
   <path class="fil14" d="M3219.78 10582.42c0,-20.33 16.49,-36.82 36.84,-36.82 20.35,0 36.85,16.49 36.85,36.82 0,20.39 -16.5,36.88 -36.85,36.88 -20.35,0 -36.84,-16.49 -36.84,-36.88z"/>
   <polygon class="fil14" points="3248.94,10550.69 3264.29,10550.69 3264.29,10509.34 3248.94,10509.34 "/>
   <polygon class="fil14" points="2151.89,8783.98 2139.59,8786.25 2121.9,8688.96 2134.19,8686.69 "/>
   <polygon class="fil14" points="2140.37,8737.18 2133.9,8738.38 2116.21,8641.1 2122.67,8639.89 "/>
   <path class="fil13" d="M2108.97 8510.1c0,0 -14.03,-29.17 -25.41,-38.16 -11.37,-9.07 -41.77,-6.88 -42.92,-4.54 -3.62,7.16 15.92,16.65 19.15,23.23 3.23,6.58 -1.73,7.58 8.57,18.98 8.7,9.7 29.53,18.9 29.53,18.9l11.08 -18.41z"/>
   <path class="fil23" d="M2096.86 8506.77c7.36,-11.48 9.57,-12.11 9.57,-12.11 0,0 121.98,48.65 133.62,52.76 11.65,4.03 185.67,14.3 185.67,14.3l52.51 115.41c0,0 -231.91,-52.89 -261.19,-63.79 -48.42,-17.92 -126.07,-88.3 -126.07,-88.3 0,0 0.08,-9.28 5.89,-18.27z"/>
   <path class="fil13" d="M2078.06 8502.3c-0.18,-0.06 -8.93,-3.67 -17.47,-7.07 -6.3,-2.55 -11.84,-7.15 -14.47,-8.06 -6.19,-2.07 1.64,14.28 13.84,23.07 10.32,7.43 18.41,9.7 22.81,10.2 4.4,0.49 -4.71,-18.14 -4.71,-18.14z"/>
   <path class="fil23" d="M2399.88 9586.15c0,0 -2.66,42.78 -10.61,52.9l-122.36 0c0.77,-4.33 4.25,-14.88 19.54,-17.49 19.34,-3.39 51.69,-16.99 63.39,-42.55 12.34,-26.84 50.04,7.14 50.04,7.14z"/>
   <path class="fil23" d="M2614.2 9567.4c0,0 9.81,73.78 -0.67,74.77 -1.39,0.14 -46.9,-1.36 -62.66,-0.85 -21.99,0.71 -58.06,0.42 -58.06,0.42 -4.54,0.21 -7.52,-4.75 -5.2,-8.64 2.53,-4.32 7.38,-8.93 16.62,-10.69 19.26,-3.69 51.37,-17.84 62.63,-43.61 11.85,-27.05 47.34,-11.4 47.34,-11.4z"/>
   <path class="fil4" d="M2342.35 9016.31c0,0 30.76,107.62 118.94,294.56 88.16,186.91 94.97,272.17 94.97,272.17l60.74 -2.9c0,0 -5.72,-222.48 -47.36,-316.86 -41.66,-94.33 -50.14,-352.48 -50.14,-352.48l-177.15 105.51z"/>
   <path class="fil14" d="M2292.95 8923.68c0,0 -2.44,166.69 26.4,371.32 28.83,204.7 19.06,291.58 19.06,291.58l69.08 2.27c0,0 41.29,-204.71 29.44,-307.16 -11.84,-102.46 56.53,-351.57 56.53,-351.57l-200.51 -6.44z"/>
   <path class="fil13" d="M2429.26 8533.61l-32.58 24.08 -47.09 -9.92c0.65,-4.24 3.75,-22.1 6.59,-38.16 0.17,-0.99 0.35,-1.92 0.5,-2.84 2.42,-13.74 4.52,-25.49 4.52,-25.49l43.98 -21.94 16.4 -8.15c-0.05,0.28 -1.27,15.22 -1.44,17.41 -3.09,38.66 9.12,65.01 9.12,65.01z"/>
   <path class="fil14" d="M2352.88 8521.42c1.03,-0.41 64.05,-19.04 70.91,-16.77 6.84,2.26 10.89,15.51 10.89,15.51l-97.29 27.68c0,0 2.33,-20.89 15.49,-26.42z"/>
   <path class="fil6" d="M2532.56 8934.52c0,12.75 -0.65,22.23 -1.81,27.61 -10.63,48.71 -250.51,24.57 -247.53,-5.3 0.09,-0.85 0.85,-11.97 1.81,-28.05l0 -0.06c0.41,-6.6 0.85,-13.81 1.37,-21.61 0.44,-6.23 0.85,-12.96 1.27,-19.62 0.43,-7.21 0.86,-14.58 1.28,-21.65 2.13,-33.56 4.03,-63.8 4.25,-65.29 4.04,-41.42 7.97,-81.92 8.29,-108.33 0.2,-22.94 3.4,-46.46 7.54,-67.76 3.92,-19.62 8.7,-37.46 12.85,-51.42 2.86,-9.76 8.28,-18.47 15.49,-25.13 5.12,-4.89 11.15,-8.71 17.75,-11.39 1.81,-0.72 3.71,-1.35 5.51,-1.92 26.86,-7.72 63.93,-17.42 74.02,-14.44 27.29,8 47.57,56 61.9,117.18 16.36,70.17 28.14,164.49 33.24,234.23 0.54,7.43 1.07,14.66 1.5,21.45 0.31,7.02 0.62,13.67 0.85,19.97 0.2,7.93 0.42,15.16 0.42,21.53z"/>
   <path class="fil24" d="M2416.84 8469.25c-9.65,18.47 -45.64,34.47 -60.66,40.36 0.17,-0.99 0.35,-1.92 0.5,-2.84 2.42,-13.74 4.52,-25.49 4.52,-25.49l43.98 -21.94c9.73,-0.15 15.63,2.33 11.66,9.91z"/>
   <path class="fil13" d="M2339.83 8478.66c0,0 79.34,24.79 94,-24.85 14.64,-49.65 34.75,-79.87 -15.28,-97.79 -50.04,-17.92 -65.51,-1.91 -74.44,13.45 -8.91,15.45 -24.55,101.48 -4.28,109.19z"/>
   <path class="fil23" d="M2347.23 8364.73c0,0 5.06,57.78 17,55.23 11.96,-2.47 22.8,-4.32 21.04,13.1 -1.75,17.42 -18.32,37.53 18.5,40.58 36.82,3.12 89.75,-91.84 79.64,-109.82 -29.19,-51.91 -178.37,-62.38 -136.18,0.91z"/>
   <path class="fil13" d="M2181.37 8740.01c0,0 -27.36,-18.48 -32.57,-20.11 -5.17,-1.62 -22.21,-3.4 -23,-2.06 -0.79,1.36 -3.12,5.46 -0.14,6.88 2.97,1.34 6.68,0.92 5.56,1.83 -1.11,1.01 -12.29,-4.32 -14.89,1.35 -2.58,5.74 -4.85,25.28 8.28,31.23 13.13,5.88 45.55,0.57 47.88,1.2 19.82,5.81 8.88,-20.32 8.88,-20.32z"/>
   <path class="fil14" d="M2181.13 8734.99c0,0 133.58,22.72 145.41,16.99 18.91,-9.21 -7.32,-144.8 -7.32,-144.8 0,0 -1.12,-30.66 34.76,-37.95 31.18,-6.3 61.27,17.05 61.27,17.05 0,0 27.37,24.51 23.86,51.69 -7.74,60.2 -19.8,182.62 -60.05,201.38 -51.94,24.16 -202.21,-67.12 -202.21,-67.12 0,0 -4.99,-6.17 -4.28,-17.49 0.62,-10.05 8.56,-19.75 8.56,-19.75z"/>
   <path class="fil19" d="M2531.29 8893.02c-33.98,6.23 -68.18,8.58 -100.26,8.58 -59.68,0 -112.24,-8.08 -143.36,-14.11 0.43,-7.21 0.86,-14.58 1.28,-21.65 45.57,8.91 145.16,23.65 240.84,5.73 0.54,7.43 1.07,14.66 1.5,21.45z"/>
   <path class="fil19" d="M2532.56 8934.52c-34.42,6.51 -69.03,8.86 -101.53,8.86 -61.38,0 -115.31,-8.5 -146,-14.6l0 -0.06c0.41,-6.6 0.85,-13.81 1.37,-21.61 44.61,9.07 147.51,24.85 245.74,5.88 0.2,7.93 0.42,15.16 0.42,21.53z"/>
   <polygon class="fil14" points="7551.28,9601.02 7566.08,9603.72 7587.39,9486.6 7572.59,9483.91 "/>
   <polygon class="fil14" points="7565.15,9544.66 7572.95,9546.08 7594.25,9428.96 7586.46,9427.55 "/>
   <path class="fil13" d="M7602.96 9271.28c0,0 16.85,-35.05 30.6,-45.95 13.73,-10.92 50.27,-8.22 51.68,-5.45 4.32,8.63 -29.38,22.01 -33.27,29.94 -3.83,7.93 12.31,7.16 -0.14,20.89 -10.41,11.61 -35.56,22.66 -35.56,22.66l-13.31 -22.09z"/>
   <path class="fil23" d="M7617.56 9267.23c-8.85,-13.79 -11.54,-14.5 -11.54,-14.5 0,0 -146.87,58.55 -160.88,63.43 -13.95,4.9 -223.48,17.21 -223.48,17.21l-63.22 138.99c0,0 279.19,-63.65 314.46,-76.75 58.27,-21.67 151.73,-106.35 151.73,-106.35 0,0 -0.08,-11.11 -7.07,-22.03z"/>
   <path class="fil13" d="M7639.5 9261.08c0.22,-0.13 7.43,-8.92 14.58,-17.42 5.32,-6.24 8.58,-14.3 10.85,-16.71 5.45,-5.67 10.05,7.15 2.05,23.37 -6.81,13.73 -19.48,24.91 -23.86,27.97 -4.39,2.97 -3.62,-17.21 -3.62,-17.21z"/>
   <path class="fil23" d="M7252.75 10566.63c0,0 3.18,51.54 12.82,63.65l147.27 0c-0.91,-5.17 -5.09,-17.84 -23.5,-21.03 -23.3,-4.11 -62.25,-20.47 -76.33,-51.19 -14.88,-32.36 -60.26,8.57 -60.26,8.57z"/>
   <path class="fil23" d="M6991.4 10559.4c0,0 -9.7,64.15 2.91,65.35 1.7,0.14 60.68,0 76.68,2.41 26.2,3.97 69.89,0.5 69.89,0.5 5.52,0.27 9.07,-5.67 6.3,-10.41 -3.05,-5.18 -8.92,-10.69 -20.04,-12.81 -23.16,-4.48 -61.82,-21.53 -75.41,-52.48 -14.24,-32.64 -60.33,7.44 -60.33,7.44z"/>
   <path class="fil4" d="M7321.99 9880.64c0,0 -37.02,129.57 -143.16,354.6 -106.14,225.03 -114.28,327.64 -114.28,327.64l-73.15 -3.48c0,0 6.88,-267.86 57.01,-381.43 50.12,-113.51 60.32,-424.29 60.32,-424.29l213.26 126.96z"/>
   <path class="fil14" d="M7381.49 9769.13c0,0 2.97,200.66 -31.8,447.06 -34.69,246.34 -22.94,350.94 -22.94,350.94l-83.12 2.75c0,0 -49.72,-246.48 -35.48,-369.75 14.3,-123.35 -68.05,-423.14 -68.05,-423.14l241.39 -7.86z"/>
   <path class="fil13" d="M7217.41 9299.53l39.24 29.04 56.65 -11.91c-0.79,-5.16 -4.54,-26.61 -7.94,-46.01 -0.22,-1.15 -0.42,-2.28 -0.56,-3.42 -2.98,-16.49 -5.45,-30.64 -5.45,-30.64l-52.97 -26.43 -19.76 -9.84c0.08,0.36 1.56,18.34 1.78,20.96 3.69,46.6 -10.99,78.25 -10.99,78.25z"/>
   <path class="fil14" d="M7309.33 9284.87c-1.21,-0.49 -77.1,-22.87 -85.32,-20.17 -8.28,2.75 -13.1,18.69 -13.1,18.69l117.11 33.34c0,0 -2.83,-25.2 -18.69,-31.86z"/>
   <path class="fil6" d="M7093.08 9782.22c0,15.3 0.71,26.7 2.13,33.21 12.82,58.7 301.57,29.52 298.03,-6.38 -0.15,-0.98 -1.06,-14.44 -2.2,-33.77l0 -0.14c-0.5,-7.87 -1.05,-16.58 -1.7,-25.92 -0.5,-7.51 -0.99,-15.57 -1.49,-23.65 -0.49,-8.71 -1.06,-17.48 -1.56,-26.05 -2.54,-40.44 -4.88,-76.83 -5.09,-78.67 -4.89,-49.84 -9.64,-98.49 -9.98,-130.36 -0.29,-27.61 -4.11,-55.86 -9.07,-81.56 -4.74,-23.65 -10.47,-45.1 -15.5,-61.89 -3.4,-11.76 -9.92,-22.23 -18.63,-30.24 -6.16,-5.87 -13.45,-10.54 -21.38,-13.73 -2.13,-0.85 -4.46,-1.63 -6.65,-2.27 -32.3,-9.35 -76.91,-20.96 -89.08,-17.41 -32.87,9.62 -57.28,67.4 -74.49,141.05 -19.68,84.47 -33.92,197.97 -40,281.95 -0.64,8.99 -1.29,17.62 -1.86,25.84 -0.34,8.43 -0.77,16.5 -0.99,24 -0.28,9.64 -0.49,18.27 -0.49,25.99z"/>
   <path class="fil24" d="M7232.37 9222.13c11.59,22.24 54.93,41.43 72.99,48.52 -0.22,-1.15 -0.42,-2.28 -0.56,-3.42 -2.98,-16.49 -5.45,-30.64 -5.45,-30.64l-52.97 -26.43c-11.68,-0.14 -18.83,2.77 -14.01,11.97z"/>
   <path class="fil13" d="M7325.05 9233.47c0,0 -95.53,29.81 -113.15,-29.95 -17.64,-59.77 -41.84,-96.16 18.41,-117.75 60.25,-21.53 78.88,-2.27 89.57,16.28 10.76,18.48 29.59,122.14 5.17,131.42z"/>
   <path class="fil23" d="M7316.12 9096.32c0,0 -6.08,69.53 -20.46,66.49 -14.38,-3.06 -27.4,-5.26 -25.27,15.71 2.04,20.95 22.01,45.17 -22.32,48.86 -44.31,3.74 -108.04,-110.6 -95.87,-132.19 35.13,-62.46 214.77,-75.07 163.92,1.13z"/>
   <path class="fil13" d="M7515.8 9548.06c0,0 32.93,-22.3 39.23,-24.22 6.23,-1.98 26.69,-4.11 27.68,-2.47 0.93,1.62 3.75,6.58 0.14,8.22 -3.54,1.7 -7.99,1.13 -6.64,2.25 1.34,1.21 14.78,-5.23 17.9,1.64 3.12,6.86 5.81,30.44 -9.98,37.53 -15.78,7.14 -54.81,0.7 -57.64,1.55 -23.86,6.95 -10.69,-24.5 -10.69,-24.5z"/>
   <path class="fil14" d="M7516.08 9542.05c0,0 -160.8,27.32 -175.03,20.39 -22.73,-11.04 8.85,-174.27 8.85,-174.27 0,0 1.35,-36.96 -41.85,-45.66 -37.6,-7.64 -73.77,20.53 -73.77,20.53 0,0 -32.93,29.45 -28.76,62.11 9.35,72.5 23.86,219.84 72.3,242.44 62.52,29.16 243.43,-80.79 243.43,-80.79 0,0 6.03,-7.37 5.18,-21.04 -0.79,-12.11 -10.35,-23.71 -10.35,-23.71z"/>
   <path class="fil19" d="M7094.56 9732.23c40.93,7.51 82.08,10.33 120.74,10.33 71.8,0 135.1,-9.7 172.55,-16.99 -0.49,-8.71 -1.06,-17.48 -1.56,-26.05 -54.8,10.68 -174.74,28.46 -289.87,6.87 -0.64,8.99 -1.29,17.62 -1.86,25.84z"/>
   <path class="fil19" d="M7093.08 9782.22c41.42,7.79 83.06,10.62 122.22,10.62 73.84,0 138.77,-10.26 175.74,-17.56l0 -0.14c-0.5,-7.87 -1.05,-16.58 -1.7,-25.92 -53.68,10.84 -177.52,29.96 -295.77,7.01 -0.28,9.64 -0.49,18.27 -0.49,25.99z"/>
   <path class="fil14" d="M2143.27 9638.28l372.16 0 0 -458.13c0,-53.89 -43.85,-97.78 -97.76,-97.78l-176.65 0c-53.9,0 -97.75,43.89 -97.75,97.78l0 458.13zm383.35 11.18l-394.55 0 0 -469.31c0,-60.11 48.89,-108.98 108.95,-108.98l176.65 0c60.07,0 108.95,48.87 108.95,108.98l0 469.31z"/>
   <polygon class="fil6" points="2137.66,9311.85 2521.03,9311.85 2521.03,9298.76 2137.66,9298.76 "/>
   <path class="fil25" d="M9550.17 8941.82l5.67 1036.04c0,0 -379.05,178.85 -995.92,204.85 -377.61,15.86 -635.77,-42.49 -779.23,-90.14 -90.91,-30.23 -135.81,-56.16 -135.81,-56.16l-5.95 -1086.1c31.87,-32.64 77.97,-58.71 135.04,-79.23 473.28,-170.94 1696.96,36.46 1696.96,36.46l79.24 34.28z"/>
   <path class="fil12" d="M7773.97 8871.08l6.72 1221.49c-90.91,-30.23 -135.81,-56.16 -135.81,-56.16l-5.95 -1086.1c31.87,-32.64 77.97,-58.71 135.04,-79.23z"/>
   <path class="fil6" d="M12405.17 10610.17c0,0 -284.7,2.97 -281.66,0l24.21 -69.18 25.85 -73.64 19.54 -55.65 25.85 -73.64 31.08 -88.72 29.45 0 30.88 88.72 25.7 73.64 19.34 55.65 25.62 73.64 24.14 69.18z"/>
   <polygon class="fil26" points="12060.42,10619.16 12461.68,10619.16 12461.68,10599.62 12060.42,10599.62 "/>
   <polygon class="fil19" points="12336.07,10411.7 12193.11,10411.7 12218.96,10338.06 12310.37,10338.06 "/>
   <polygon class="fil19" points="12381.03,10540.99 12147.72,10540.99 12173.57,10467.35 12355.41,10467.35 "/>
   <path class="fil6" d="M1565.2 10610.17c0,0 -284.69,2.97 -281.68,0l24.27 -69.18 25.84 -73.64 19.51 -55.65 25.83 -73.64 31.13 -88.72 29.44 0 30.87 88.72 25.69 73.64 19.35 55.65 25.66 73.64 24.09 69.18z"/>
   <polygon class="fil26" points="1220.48,10619.16 1621.72,10619.16 1621.72,10599.62 1220.48,10599.62 "/>
   <polygon class="fil19" points="1496.1,10411.7 1353.14,10411.7 1378.97,10338.06 1470.41,10338.06 "/>
   <polygon class="fil19" points="1541.11,10540.99 1307.79,10540.99 1333.63,10467.35 1515.45,10467.35 "/>
   <path class="fil6" d="M6005.7 10610.17c0,0 -284.69,2.97 -281.68,0l24.27 -69.18 25.82 -73.64 19.52 -55.65 25.83 -73.64 31.12 -88.72 29.44 0 30.89 88.72 25.67 73.64 19.37 55.65 25.65 73.64 24.1 69.18z"/>
   <polygon class="fil26" points="5660.97,10619.16 6062.21,10619.16 6062.21,10599.62 5660.97,10599.62 "/>
   <polygon class="fil19" points="5936.58,10411.7 5793.63,10411.7 5819.46,10338.06 5910.91,10338.06 "/>
   <polygon class="fil19" points="5981.6,10540.99 5748.29,10540.99 5774.11,10467.35 5955.95,10467.35 "/>
  </g>
 </g>
</svg>
